<?xml version="1.0" encoding="UTF-8" standalone="no"?><!DOCTYPE svg PUBLIC "-//W3C//DTD SVG 1.1//EN" "http://www.w3.org/Graphics/SVG/1.1/DTD/svg11.dtd"><svg width="100%" height="100%" viewBox="0 0 1772 1772" version="1.1" xmlns="http://www.w3.org/2000/svg" xmlns:xlink="http://www.w3.org/1999/xlink" xml:space="preserve" xmlns:serif="http://www.serif.com/" style="fill-rule:evenodd;clip-rule:evenodd;stroke-linecap:round;stroke-linejoin:round;stroke-miterlimit:1.5;"><g id="Ebene1"><path d="M1726.34,1281.44c-149.249,264.352 -989.958,472.942 -1229.04,393.667c-282.226,-93.58 -382.5,-432.442 -478.733,-734.537c-96.233,-302.095 202.188,-688.008 421.391,-823.707c219.202,-135.7 789.006,-141.573 991.032,89.463c213.156,243.764 439.21,820.302 295.348,1075.11Z" style="fill:url(#_Linear1);"/><path d="M83.097,418.522c99.81,-247.804 976.183,-514.444 1352.12,-264.257c242.837,161.61 293.373,651.155 301.327,915.003c6.408,212.588 -145.542,370.009 -286.681,504.309c-116.447,110.805 -300.842,167.44 -414.431,175.133c-123.329,8.352 -325.314,-43.859 -493.459,-123.483c-173.907,-82.353 -300.512,-256.949 -379.158,-391.467c-163.207,-279.154 -186.912,-549.099 -79.715,-815.238Z" style="fill:url(#_Linear2);"/><path d="M58.137,1104.91c-11.844,-96.425 53.811,-559.477 140.99,-712.608c167.392,-294.025 540.163,-333.294 826.555,-309.735c290.716,23.914 558.41,225.459 589.837,487.549c24.388,203.383 137.655,426.988 95.736,577.122c-49.296,176.557 -38.974,339.36 -153.359,413.12c-211.329,136.275 -780.304,165.528 -1043.71,8.846c-277.913,-165.312 -421.072,-179.518 -456.053,-464.294Z" style="fill:url(#_Linear3);"/><path d="M501.022,1626.2c-378.437,-139.209 -480.783,-791.781 -400.344,-1020.8c94.956,-270.353 515.694,-431.805 790.351,-525.143c274.657,-93.339 678.707,183.463 791.814,392.555c113.108,209.091 101.907,667.766 -113.169,861.994c-226.926,204.928 -823.981,381.4 -1068.65,291.398Z" style="fill:url(#_Linear4);"/></g><g><path d="M1225.48,935.277c-0,0 -87.344,68.43 -103.544,85.522c-10.429,11.004 -37.022,29.834 -59.402,35.23c-30.276,7.3 -94.776,4.236 -122.255,8.57c-15.161,2.391 -34.311,0.937 -42.618,17.432c-5.969,11.853 2.313,31.064 11.288,37.107c8.865,5.54 36.069,10.414 46.039,9.042c48.875,-6.725 113.616,-13.057 123.302,-13.173c6.294,-0.075 17.042,1.186 17.872,6.101c0.399,2.361 -5.631,8.791 -7.482,10.135c-14.482,10.511 -25.903,22.347 -133.144,22.483c-16.556,0.021 -35.107,-2.755 -49.055,-7.773c-19.594,-7.05 -245.44,-100.047 -245.44,-100.047c-26.912,-11.653 -43.879,7.224 -48.281,17.842c-4.402,10.618 -1.712,35.204 21.87,45.867l351.587,162.359c28.456,13.11 61.528,11.589 88.83,-3.85l194.526,-111.351c9.97,-5.674 20.953,-9.461 32.228,-11.365l34.769,1.777l-40.523,-239.972l-35.824,13.698c-12.528,2.115 -24.391,6.993 -34.743,14.366Z" style="fill:#fff;fill-rule:nonzero;"/><path d="M1319.28,886.118l79.715,-13.461c5.469,-0.924 12.961,-1.442 15.677,3.473c148.925,269.48 101.777,248.974 102.701,254.443l-152.265,26.93c-5.453,1.02 -14.45,-5.399 -15.301,-10.88l-40.513,-239.912c-0.634,-10.647 -0.543,-18.815 9.986,-20.593Z" style="fill:#fff;fill-rule:nonzero;"/><path d="M438.776,547.085l-72.851,-8.115c-5.512,-0.614 -13.022,-0.709 -15.457,4.351c-133.511,277.439 -87.593,254.31 -88.207,259.823l146.045,17.476c5.502,0.711 11.004,-0.79 15.357,-4.337c4.418,-3.466 7.096,-8.527 7.638,-14.048l26.101,-234.317c0.033,-10.666 -8.014,-19.651 -18.626,-20.833Zm280.138,308.486c-0,-0 106.552,17.317 139.861,16.449c11.256,-0.293 23.252,-6.477 32.275,-14.636c8.016,-7.25 13.685,-16.058 14.401,-23.682c2.844,-30.274 -29.899,-40.206 -36.695,-39.532c-8.944,0.888 -135.216,0.115 -160.505,-17.879c-0.342,-0.243 -56.254,-50.027 -51.104,-98.533c4.078,-38.412 101.176,-67.955 129.379,-71.135c18.377,-2.072 60.489,77.551 90.381,104.728c25.441,-23.128 55.852,-22.683 89.976,-26.65c-21.691,-42.982 -68.69,-79.974 -84.976,-110.331c-28.495,-52.738 -104.806,-73.785 -163.136,-59.755l-141.465,49.287c-18.392,4.663 -83.37,8.651 -102.355,6.709l-25.594,229.765c0.136,2.302 -0.118,4.584 -0.763,6.848c91.764,83.977 207.51,55.363 245.849,49.087c8.138,-1.331 16.325,-1.549 24.471,-0.74Z" style="fill:#fff;fill-rule:nonzero;"/><path d="M908.699,743.391c60.053,-33.025 135.62,-11.083 168.645,48.969c33.026,60.052 11.084,135.62 -48.968,168.645c-60.053,33.026 -135.62,11.083 -168.646,-48.969" style="fill:none;stroke:#fff;stroke-width:13.33px;"/><path d="M1003.63,807.579c-18.293,-8.888 -34.635,-4.285 -49.026,13.81l43.869,21.314l-4.735,9.745l-45.073,-21.9l-2.264,4.223l-2.349,4.834l-1.48,3.483l39.826,19.35l-4.734,9.745l-38.45,-18.681c-2.283,10.096 -1.719,19.038 1.692,26.827c3.41,7.788 9.989,14.051 19.738,18.787c8.946,4.346 18.613,6.989 29.002,7.928l-5.506,11.331c-9.963,-0.794 -19.847,-3.573 -29.653,-8.338c-13.591,-6.603 -22.883,-15.304 -27.879,-26.104c-4.995,-10.799 -5.667,-23.311 -2.017,-37.536l-14.279,-6.937l4.735,-9.745l13.075,6.352l1.369,-3.256l1.615,-3.324l3.108,-5.96l-13.074,-6.352l4.734,-9.745l14.107,6.854c8.623,-12.058 18.907,-19.729 30.851,-23.014c11.945,-3.285 24.713,-1.626 38.303,4.978c11.527,5.6 20.834,13.141 27.922,22.623l-11.208,7.533c-7.415,-8.956 -14.822,-15.231 -22.219,-18.825Z" style="fill:#fff;fill-rule:nonzero;"/></g><defs><linearGradient id="_Linear1" x1="0" y1="0" x2="1" y2="0" gradientUnits="userSpaceOnUse" gradientTransform="matrix(-1662.95,-522.507,562.74,-1790.99,1754.83,1234.35)"><stop offset="0" style="stop-color:#59ff74;stop-opacity:0.8"/><stop offset="1" style="stop-color:#0056b1;stop-opacity:0.8"/></linearGradient><linearGradient id="_Linear2" x1="0" y1="0" x2="1" y2="0" gradientUnits="userSpaceOnUse" gradientTransform="matrix(1533.63,848.059,-890.438,1610.26,74.4223,419.619)"><stop offset="0" style="stop-color:#ffe800;stop-opacity:0.8"/><stop offset="1" style="stop-color:#e24949;stop-opacity:0.8"/></linearGradient><linearGradient id="_Linear3" x1="0" y1="0" x2="1" y2="0" gradientUnits="userSpaceOnUse" gradientTransform="matrix(1752.49,0,0,1840.06,-28.3558,861.679)"><stop offset="0" style="stop-color:#a02ca7;stop-opacity:0.8"/><stop offset="0.54" style="stop-color:#352de6;stop-opacity:0.8"/><stop offset="1" style="stop-color:#0b2dff;stop-opacity:0.8"/></linearGradient><linearGradient id="_Linear4" x1="0" y1="0" x2="1" y2="0" gradientUnits="userSpaceOnUse" gradientTransform="matrix(533.597,-1592.87,1583.98,530.622,636.328,1679.13)"><stop offset="0" style="stop-color:#0e8512;stop-opacity:0.8"/><stop offset="1" style="stop-color:#0c4a0d;stop-opacity:0.8"/></linearGradient></defs></svg>